<mxfile host="app.diagrams.net" modified="2022-01-22T04:22:47.242Z" agent="5.0 (Windows NT 10.0; Win64; x64) AppleWebKit/537.36 (KHTML, like Gecko) Chrome/97.0.4692.99 Safari/537.36" etag="_0_-ensP8ZHRuNTrNR33" version="16.4.5" type="github">
  <diagram id="zpyPcI_8urEbFuBTlq8b" name="Page-1">
    <mxGraphModel dx="1038" dy="575" grid="1" gridSize="10" guides="1" tooltips="1" connect="1" arrows="1" fold="1" page="1" pageScale="1" pageWidth="850" pageHeight="1100" math="0" shadow="0">
      <root>
        <mxCell id="0" />
        <mxCell id="1" parent="0" />
        <mxCell id="Wh2nDkrWjoQenVbvuIN7-21" value="" style="endArrow=classic;html=1;rounded=0;entryX=0.6;entryY=1.037;entryDx=0;entryDy=0;entryPerimeter=0;exitX=0.25;exitY=0;exitDx=0;exitDy=0;" edge="1" parent="1" source="Wh2nDkrWjoQenVbvuIN7-10" target="Wh2nDkrWjoQenVbvuIN7-6">
          <mxGeometry width="50" height="50" relative="1" as="geometry">
            <mxPoint x="690" y="490" as="sourcePoint" />
            <mxPoint x="740" y="440" as="targetPoint" />
          </mxGeometry>
        </mxCell>
        <mxCell id="Wh2nDkrWjoQenVbvuIN7-19" value="" style="endArrow=classic;html=1;rounded=0;entryX=0.4;entryY=1.063;entryDx=0;entryDy=0;exitX=0.407;exitY=-0.011;exitDx=0;exitDy=0;exitPerimeter=0;entryPerimeter=0;" edge="1" parent="1" source="Wh2nDkrWjoQenVbvuIN7-9" target="Wh2nDkrWjoQenVbvuIN7-6">
          <mxGeometry width="50" height="50" relative="1" as="geometry">
            <mxPoint x="620" y="490" as="sourcePoint" />
            <mxPoint x="670" y="440" as="targetPoint" />
          </mxGeometry>
        </mxCell>
        <mxCell id="Wh2nDkrWjoQenVbvuIN7-16" value="" style="endArrow=block;html=1;rounded=0;entryX=0.677;entryY=1.002;entryDx=0;entryDy=0;entryPerimeter=0;exitX=0.594;exitY=0;exitDx=0;exitDy=0;exitPerimeter=0;endFill=0;" edge="1" parent="1" source="Wh2nDkrWjoQenVbvuIN7-5" target="Wh2nDkrWjoQenVbvuIN7-1">
          <mxGeometry width="50" height="50" relative="1" as="geometry">
            <mxPoint x="300" y="340" as="sourcePoint" />
            <mxPoint x="350" y="290" as="targetPoint" />
          </mxGeometry>
        </mxCell>
        <mxCell id="Wh2nDkrWjoQenVbvuIN7-15" value="" style="endArrow=block;html=1;rounded=0;entryX=0.39;entryY=1.016;entryDx=0;entryDy=0;entryPerimeter=0;exitX=0.84;exitY=-0.07;exitDx=0;exitDy=0;exitPerimeter=0;endFill=0;" edge="1" parent="1" source="Wh2nDkrWjoQenVbvuIN7-4" target="Wh2nDkrWjoQenVbvuIN7-1">
          <mxGeometry width="50" height="50" relative="1" as="geometry">
            <mxPoint x="180" y="370" as="sourcePoint" />
            <mxPoint x="230" y="320" as="targetPoint" />
          </mxGeometry>
        </mxCell>
        <mxCell id="Wh2nDkrWjoQenVbvuIN7-1" value="&lt;b&gt;Beverage&lt;/b&gt;&lt;br&gt;-----------------------------&lt;br&gt;&lt;div style=&quot;text-align: left&quot;&gt;&lt;span&gt;description&lt;/span&gt;&lt;/div&gt;&lt;div style=&quot;text-align: left&quot;&gt;&lt;span&gt;-----------------------------&lt;/span&gt;&lt;/div&gt;&lt;div style=&quot;text-align: left&quot;&gt;&lt;span&gt;getDescription()&lt;/span&gt;&lt;/div&gt;&lt;div style=&quot;text-align: left&quot;&gt;&lt;span&gt;cost()&lt;/span&gt;&lt;/div&gt;&lt;div style=&quot;text-align: left&quot;&gt;&lt;span&gt;//other useful method&lt;/span&gt;&lt;/div&gt;" style="rounded=0;whiteSpace=wrap;html=1;" vertex="1" parent="1">
          <mxGeometry x="220" y="140" width="120" height="110" as="geometry" />
        </mxCell>
        <mxCell id="Wh2nDkrWjoQenVbvuIN7-2" value="&lt;b&gt;HouseBlend&lt;/b&gt;&lt;br&gt;-----------------------------" style="rounded=0;whiteSpace=wrap;html=1;" vertex="1" parent="1">
          <mxGeometry x="20" y="350" width="120" height="60" as="geometry" />
        </mxCell>
        <mxCell id="Wh2nDkrWjoQenVbvuIN7-3" value="&lt;b&gt;DarkRoast&lt;/b&gt;&lt;br&gt;-----------------------------" style="rounded=0;whiteSpace=wrap;html=1;" vertex="1" parent="1">
          <mxGeometry x="170" y="360" width="120" height="60" as="geometry" />
        </mxCell>
        <mxCell id="Wh2nDkrWjoQenVbvuIN7-4" value="&lt;b&gt;Espresso&lt;br&gt;&lt;/b&gt;-----------------------------" style="rounded=0;whiteSpace=wrap;html=1;" vertex="1" parent="1">
          <mxGeometry x="70" y="440" width="120" height="60" as="geometry" />
        </mxCell>
        <mxCell id="Wh2nDkrWjoQenVbvuIN7-5" value="&lt;b&gt;Decaf&lt;br&gt;&lt;/b&gt;-----------------------------" style="rounded=0;whiteSpace=wrap;html=1;" vertex="1" parent="1">
          <mxGeometry x="230" y="440" width="120" height="60" as="geometry" />
        </mxCell>
        <mxCell id="Wh2nDkrWjoQenVbvuIN7-6" value="&lt;b&gt;CondimentDecorator&lt;/b&gt;&lt;br&gt;-----------------------------&lt;br&gt;getDescription()" style="rounded=0;whiteSpace=wrap;html=1;" vertex="1" parent="1">
          <mxGeometry x="530" y="360" width="120" height="60" as="geometry" />
        </mxCell>
        <mxCell id="Wh2nDkrWjoQenVbvuIN7-7" value="&lt;b&gt;Milk&lt;br&gt;&lt;/b&gt;-----------------------------&lt;br&gt;Beverage beverage&lt;br&gt;-----------------------------&lt;br&gt;&lt;div style=&quot;text-align: left&quot;&gt;&lt;span&gt;cost()&lt;/span&gt;&lt;/div&gt;&lt;div style=&quot;text-align: left&quot;&gt;&lt;span&gt;getDescription()&lt;/span&gt;&lt;/div&gt;" style="rounded=0;whiteSpace=wrap;html=1;" vertex="1" parent="1">
          <mxGeometry x="460" y="480" width="120" height="90" as="geometry" />
        </mxCell>
        <mxCell id="Wh2nDkrWjoQenVbvuIN7-8" value="&lt;b&gt;Mocha&lt;br&gt;&lt;/b&gt;-----------------------------&lt;br&gt;Beverage beverage&lt;br&gt;----------------------------&lt;br&gt;&lt;div style=&quot;text-align: left&quot;&gt;cost()&lt;/div&gt;&lt;div style=&quot;text-align: left&quot;&gt;getDescription()&lt;/div&gt;" style="rounded=0;whiteSpace=wrap;html=1;" vertex="1" parent="1">
          <mxGeometry x="630" y="480" width="120" height="100" as="geometry" />
        </mxCell>
        <mxCell id="Wh2nDkrWjoQenVbvuIN7-9" value="&lt;b&gt;Soy&lt;br&gt;&lt;/b&gt;-----------------------------&lt;br&gt;Beverage beverage&lt;br&gt;-----------------------------&lt;br&gt;&lt;div style=&quot;text-align: left&quot;&gt;&lt;span&gt;cost()&lt;/span&gt;&lt;/div&gt;&lt;div style=&quot;text-align: left&quot;&gt;&lt;span&gt;getDescription()&lt;/span&gt;&lt;/div&gt;" style="rounded=0;whiteSpace=wrap;html=1;" vertex="1" parent="1">
          <mxGeometry x="490" y="600" width="120" height="90" as="geometry" />
        </mxCell>
        <mxCell id="Wh2nDkrWjoQenVbvuIN7-10" value="&lt;b&gt;Whip&lt;br&gt;&lt;/b&gt;-----------------------------&lt;br&gt;Beverage beverage&lt;br&gt;-----------------------------&lt;br&gt;&lt;div style=&quot;text-align: left&quot;&gt;&lt;span&gt;cost()&lt;/span&gt;&lt;/div&gt;&lt;div style=&quot;text-align: left&quot;&gt;&lt;span&gt;getDescription()&lt;/span&gt;&lt;/div&gt;" style="rounded=0;whiteSpace=wrap;html=1;" vertex="1" parent="1">
          <mxGeometry x="660" y="600" width="120" height="90" as="geometry" />
        </mxCell>
        <mxCell id="Wh2nDkrWjoQenVbvuIN7-13" value="" style="endArrow=block;html=1;rounded=0;entryX=0.25;entryY=1;entryDx=0;entryDy=0;exitX=0.75;exitY=0;exitDx=0;exitDy=0;endFill=0;" edge="1" parent="1" source="Wh2nDkrWjoQenVbvuIN7-2" target="Wh2nDkrWjoQenVbvuIN7-1">
          <mxGeometry width="50" height="50" relative="1" as="geometry">
            <mxPoint x="140" y="360" as="sourcePoint" />
            <mxPoint x="190" y="310" as="targetPoint" />
          </mxGeometry>
        </mxCell>
        <mxCell id="Wh2nDkrWjoQenVbvuIN7-14" value="" style="endArrow=block;html=1;rounded=0;exitX=0.75;exitY=0;exitDx=0;exitDy=0;endFill=0;" edge="1" parent="1" source="Wh2nDkrWjoQenVbvuIN7-3" target="Wh2nDkrWjoQenVbvuIN7-1">
          <mxGeometry width="50" height="50" relative="1" as="geometry">
            <mxPoint x="300" y="340" as="sourcePoint" />
            <mxPoint x="350" y="290" as="targetPoint" />
          </mxGeometry>
        </mxCell>
        <mxCell id="Wh2nDkrWjoQenVbvuIN7-17" value="" style="endArrow=block;html=1;rounded=0;entryX=1;entryY=0.75;entryDx=0;entryDy=0;exitX=0.25;exitY=0;exitDx=0;exitDy=0;endFill=0;" edge="1" parent="1" source="Wh2nDkrWjoQenVbvuIN7-6" target="Wh2nDkrWjoQenVbvuIN7-1">
          <mxGeometry width="50" height="50" relative="1" as="geometry">
            <mxPoint x="480" y="320" as="sourcePoint" />
            <mxPoint x="530" y="270" as="targetPoint" />
          </mxGeometry>
        </mxCell>
        <mxCell id="Wh2nDkrWjoQenVbvuIN7-18" value="" style="endArrow=classic;html=1;rounded=0;entryX=0.25;entryY=1;entryDx=0;entryDy=0;" edge="1" parent="1" target="Wh2nDkrWjoQenVbvuIN7-6">
          <mxGeometry width="50" height="50" relative="1" as="geometry">
            <mxPoint x="500" y="480" as="sourcePoint" />
            <mxPoint x="550" y="430" as="targetPoint" />
          </mxGeometry>
        </mxCell>
        <mxCell id="Wh2nDkrWjoQenVbvuIN7-20" value="" style="endArrow=classic;html=1;rounded=0;entryX=0.867;entryY=0.997;entryDx=0;entryDy=0;entryPerimeter=0;" edge="1" parent="1" target="Wh2nDkrWjoQenVbvuIN7-6">
          <mxGeometry width="50" height="50" relative="1" as="geometry">
            <mxPoint x="660" y="480" as="sourcePoint" />
            <mxPoint x="710" y="430" as="targetPoint" />
          </mxGeometry>
        </mxCell>
        <mxCell id="Wh2nDkrWjoQenVbvuIN7-22" value="" style="curved=1;endArrow=classic;html=1;rounded=0;entryX=1;entryY=0.25;entryDx=0;entryDy=0;exitX=1;exitY=0.5;exitDx=0;exitDy=0;" edge="1" parent="1" source="Wh2nDkrWjoQenVbvuIN7-6" target="Wh2nDkrWjoQenVbvuIN7-1">
          <mxGeometry width="50" height="50" relative="1" as="geometry">
            <mxPoint x="580" y="260" as="sourcePoint" />
            <mxPoint x="630" y="210" as="targetPoint" />
            <Array as="points">
              <mxPoint x="730" y="270" />
              <mxPoint x="580" y="210" />
            </Array>
          </mxGeometry>
        </mxCell>
        <mxCell id="Wh2nDkrWjoQenVbvuIN7-23" value="component" style="text;html=1;align=center;verticalAlign=middle;resizable=0;points=[];autosize=1;strokeColor=none;fillColor=none;" vertex="1" parent="1">
          <mxGeometry x="365" y="140" width="70" height="20" as="geometry" />
        </mxCell>
      </root>
    </mxGraphModel>
  </diagram>
</mxfile>
